<?xml version="1.0" encoding="utf-8"?>
<!-- Generator: Adobe Illustrator 24.0.1, SVG Export Plug-In . SVG Version: 6.00 Build 0)  -->
<svg version="1.1" id="Layer_1" xmlns="http://www.w3.org/2000/svg" xmlns:xlink="http://www.w3.org/1999/xlink" x="0px" y="0px"
	 viewBox="0 0 160 50" style="enable-background:new 0 0 160 50;" xml:space="preserve">
<style type="text/css">
	.st0{fill:#E4C590;}
	.st1{fill:#FFFFFF;}
</style>
<path class="st0" d="M7,44.2v-11h3.8c0.9,0,1.6,0.1,2.1,0.4c0.6,0.3,1,0.7,1.3,1.2c0.3,0.5,0.4,1,0.4,1.7c0,0.7-0.2,1.3-0.6,1.9
	c-0.4,0.6-0.9,1-1.7,1.2l2.3,4.7h-1.9l-2.1-4.4h-2v4.4H7z M8.7,38.5h2c0.8,0,1.3-0.2,1.7-0.6c0.4-0.4,0.5-0.8,0.5-1.4
	c0-0.6-0.2-1.1-0.5-1.4c-0.3-0.4-0.9-0.5-1.7-0.5h-2V38.5z"/>
<path class="st0" d="M22.3,44.2v-11h7v1.4h-5.3V38h4.9v1.3h-4.9v3.6h5.3v1.4H22.3z"/>
<path class="st0" d="M40.5,44.4c-0.8,0-1.5-0.1-2.1-0.4c-0.6-0.3-1.1-0.7-1.4-1.2c-0.3-0.5-0.5-1.1-0.5-1.9h1.8
	c0,0.6,0.2,1.1,0.6,1.5c0.4,0.4,1,0.6,1.7,0.6c0.6,0,1.1-0.2,1.5-0.5c0.4-0.3,0.5-0.7,0.5-1.2c0-0.4-0.1-0.7-0.3-0.9
	c-0.2-0.2-0.4-0.4-0.7-0.6c-0.3-0.2-0.6-0.3-1-0.4c-0.4-0.1-0.8-0.3-1.2-0.4c-0.8-0.3-1.5-0.6-1.9-1.1c-0.4-0.5-0.6-1-0.6-1.8
	c0-0.6,0.1-1.2,0.4-1.6c0.3-0.5,0.7-0.8,1.3-1.1c0.5-0.3,1.2-0.4,1.9-0.4c0.7,0,1.3,0.1,1.9,0.4c0.5,0.3,1,0.6,1.3,1.1
	c0.3,0.5,0.5,1,0.5,1.6h-1.8c0-0.3-0.1-0.6-0.2-0.8c-0.1-0.3-0.4-0.5-0.6-0.6c-0.3-0.2-0.6-0.3-1-0.3c-0.5,0-1,0.1-1.3,0.4
	c-0.3,0.3-0.5,0.6-0.5,1.1c0,0.4,0.1,0.8,0.4,1c0.3,0.2,0.6,0.4,1,0.6c0.4,0.1,0.9,0.3,1.5,0.5c0.5,0.2,1,0.4,1.5,0.6
	c0.4,0.3,0.8,0.6,1,1c0.3,0.4,0.4,0.9,0.4,1.6c0,0.6-0.1,1.1-0.4,1.6c-0.3,0.5-0.7,0.9-1.3,1.2C42,44.3,41.3,44.4,40.5,44.4z"/>
<path class="st0" d="M54.2,44.2v-9.6h-3.3v-1.4h8.2v1.4h-3.2v9.6H54.2z"/>
<path class="st0" d="M64.4,44.2l4.1-11h1.8l4,11h-1.8l-0.9-2.7h-4.5l-0.9,2.7H64.4z M67.6,40.2h3.6l-1.8-5L67.6,40.2z"/>
<path class="st0" d="M85.1,44.4c-0.8,0-1.5-0.2-2.1-0.5c-0.6-0.3-1.1-0.8-1.5-1.4c-0.4-0.6-0.6-1.5-0.6-2.4v-6.9h1.7v6.9
	c0,1,0.2,1.7,0.7,2.1c0.5,0.5,1.1,0.7,1.9,0.7c0.8,0,1.4-0.2,1.9-0.7c0.5-0.5,0.7-1.2,0.7-2.1v-6.9h1.7v6.9c0,1-0.2,1.8-0.6,2.4
	c-0.4,0.6-0.9,1.1-1.5,1.4C86.6,44.3,85.9,44.4,85.1,44.4z"/>
<path class="st0" d="M97.1,44.2v-11h3.8c0.9,0,1.6,0.1,2.1,0.4c0.6,0.3,1,0.7,1.3,1.2c0.3,0.5,0.4,1,0.4,1.7c0,0.7-0.2,1.3-0.6,1.9
	c-0.4,0.6-0.9,1-1.7,1.2l2.3,4.7h-1.9l-2.1-4.4h-2v4.4H97.1z M98.8,38.5h2c0.8,0,1.3-0.2,1.7-0.6c0.4-0.4,0.5-0.8,0.5-1.4
	c0-0.6-0.2-1.1-0.5-1.4c-0.3-0.4-0.9-0.5-1.7-0.5h-2V38.5z"/>
<path class="st0" d="M111.7,44.2l4.1-11h1.8l4,11h-1.8l-0.9-2.7h-4.5l-0.9,2.7H111.7z M114.8,40.2h3.6l-1.8-5L114.8,40.2z"/>
<path class="st0" d="M128.7,44.2v-11h1.7l5.5,8.3v-8.3h1.7v11h-1.7l-5.5-8.3v8.3H128.7z"/>
<path class="st0" d="M148.1,44.2v-9.6h-3.3v-1.4h8.2v1.4h-3.2v9.6H148.1z"/>
<g>
	<path class="st1" d="M12.9,25c-4.7,0-6.4-2.2-6.4-5.6c0-3.1,1.9-6,6.4-6c2.8,0,5,0.8,5,0.8v8.3h2.4V25H12.9z M9,10.3
		c0-0.9,0.7-1.6,1.6-1.6c0.9,0,1.6,0.7,1.6,1.6c0,0.9-0.7,1.6-1.6,1.6C9.7,11.9,9,11.2,9,10.3z M14.8,16.3c0,0-0.9-0.4-2.3-0.4
		c-1.8,0-2.9,1.4-2.9,3.2c0,2.2,1.1,3.4,3.6,3.4h1.5V16.3z M13,10.3c0-0.9,0.7-1.6,1.6-1.6s1.6,0.7,1.6,1.6c0,0.9-0.7,1.6-1.6,1.6
		S13,11.2,13,10.3z"/>
	<path class="st1" d="M19.9,22.5h2.9V25h-2.9V22.5z"/>
	<path class="st1" d="M22.5,22.5h2.9V25h-2.9V22.5z"/>
	<path class="st1" d="M25.1,22.5h2.9V25h-2.9V22.5z"/>
	<path class="st1" d="M27.7,22.5h2.9V25h-2.9V22.5z"/>
	<path class="st1" d="M30.2,22.5h2.9V25h-2.9V22.5z"/>
	<path class="st1" d="M32.8,22.5h2.9V25h-2.9V22.5z"/>
	<path class="st1" d="M35.4,22.5h2.9V25h-2.9V22.5z"/>
	<path class="st1" d="M38,22.5h2.9V25H38V22.5z"/>
	<path class="st1" d="M40.6,22.5h2.9V25h-2.9V22.5z"/>
	<path class="st1" d="M43.2,22.5h2.9V25h-2.9V22.5z"/>
	<path class="st1" d="M54.3,25c-2.8,0-4.2-0.7-4.9-1.8c-0.6,1.2-1.7,1.8-3.2,1.8h-0.4v-2.5h0.5c1.2,0,1.8-0.7,1.8-2.9
		c0-3.4,2.1-6.2,6.1-6.2c3.9,0,5.5,2.2,5.5,5.7V25H54.3z M56.6,19.5c0-2.5-0.9-3.6-2.7-3.6c-1.8,0-2.8,1.4-2.8,3.4
		c0,2.1,0.9,3.2,3.4,3.2h2.1V19.5z"/>
	<path class="st1" d="M63.4,8.1h3.2v14.4H69V25h-5.6V8.1z"/>
	<path class="st1" d="M68.6,22.5h2.9V25h-2.9V22.5z"/>
	<path class="st1" d="M71.2,22.5h2.9V25h-2.9V22.5z"/>
	<path class="st1" d="M73.8,22.5h2.9V25h-2.9V22.5z"/>
	<path class="st1" d="M76.4,22.5h2.9V25h-2.9V22.5z"/>
	<path class="st1" d="M79,22.5h2.9V25H79V22.5z"/>
	<path class="st1" d="M81.6,22.5h2.9V25h-2.9V22.5z"/>
	<path class="st1" d="M84.2,22.5H87V25h-2.9V22.5z"/>
	<path class="st1" d="M86.8,22.5h2.9V25h-2.9V22.5z"/>
	<path class="st1" d="M89.4,22.5h2.9V25h-2.9V22.5z"/>
	<path class="st1" d="M92,22.5h2.9V25H92V22.5z"/>
	<path class="st1" d="M94.6,22.5h2.9V25h-2.9V22.5z"/>
	<path class="st1" d="M97.2,22.5h2.9V25h-2.9V22.5z"/>
	<path class="st1" d="M99.7,22.5h9.3c0.1-0.6,0.1-1.2,0.1-1.8c0-3-1.2-4.6-4.7-4.6c-1,0-1.9,0.1-2.8,0.2v-2.5c0.9-0.1,2-0.2,3.1-0.2
		c5.4,0,7.5,2.4,7.5,7c0,0.6,0,1.2-0.1,1.9h1.9V25H99.7V22.5z M103.8,10c0-0.9,0.7-1.7,1.7-1.7s1.7,0.7,1.7,1.7s-0.7,1.7-1.7,1.7
		S103.8,11,103.8,10z"/>
	<path class="st1" d="M113.7,22.5h2.9V25h-2.9V22.5z"/>
	<path class="st1" d="M116.3,22.5h1c0.7,0,1.5,0.1,1.5,0.1c-0.7-0.7-1.1-1.9-1.1-3.2c0-3.5,2.5-6,6.1-6c3.4,0,5.6,1.8,5.6,5.6
		c0,1.4-0.5,2.9-1.4,3.6c0,0,1-0.1,1.8-0.1h1.3V25h-14.8V22.5z M126.2,19.2c0-2.1-0.8-3.3-2.6-3.3c-1.4,0-2.7,1-2.7,3.2
		c0,2.3,0.9,3.4,2.7,3.4C125,22.5,126.2,21.4,126.2,19.2z M121.9,10c0-0.9,0.7-1.7,1.7-1.7s1.7,0.7,1.7,1.7s-0.7,1.7-1.7,1.7
		S121.9,10.9,121.9,10z"/>
	<path class="st1" d="M130.7,22.5h2.9V25h-2.9V22.5z"/>
	<path class="st1" d="M133.3,22.5h2.9V25h-2.9V22.5z"/>
	<path class="st1" d="M135.9,22.5h2.9V25h-2.9V22.5z"/>
	<path class="st1" d="M138.5,22.5h3V8.1h3.2V25h-6.1V22.5z"/>
	<path class="st1" d="M148.7,8.1h3.2V25h-3.2V8.1z"/>
</g>
</svg>
